<?xml version="1.0" encoding="utf-8"?>
<!-- Generator: Adobe Illustrator 16.0.3, SVG Export Plug-In . SVG Version: 6.00 Build 0)  -->
<!DOCTYPE svg PUBLIC "-//W3C//DTD SVG 1.1//EN" "http://www.w3.org/Graphics/SVG/1.1/DTD/svg11.dtd">
<svg version="1.1" id="Layer_1" xmlns="http://www.w3.org/2000/svg" xmlns:xlink="http://www.w3.org/1999/xlink" x="0px" y="0px"
	 width="350px" height="52.913px" viewBox="0 0 350 52.913" enable-background="new 0 0 350 52.913" xml:space="preserve">
<g>
	<g>
		<g>
			<path d="M10.809,24.696v5.78c0,0.346-0.036,0.627-0.092,0.845c0.03,0.744,0.103,1.308,0.208,1.695
				c0.113,0.385,0.337,0.692,0.682,0.917c0.336,0.225,0.887,0.396,1.648,0.509c0.865,0.104,1.3,0.395,1.3,0.882
				c0,0.563-0.323,0.843-0.967,0.843c-0.603,0-1.657-0.021-3.156-0.082c-1.495-0.051-2.608-0.073-3.343-0.073
				c-0.506,0-1.486,0.022-2.944,0.073c-1.467,0.062-2.502,0.082-3.099,0.082c-0.313,0-0.567-0.043-0.755-0.146
				C0.089,35.921,0,35.69,0,35.324c0-0.28,0.111-0.502,0.343-0.655c0.228-0.155,0.496-0.227,0.794-0.227
				c0.819-0.11,1.415-0.283,1.786-0.503c0.372-0.23,0.608-0.538,0.709-0.928c0.108-0.401,0.162-0.956,0.162-1.69v-0.857V15.486
				v-0.84c0-1.145-0.138-1.938-0.413-2.393c-0.28-0.453-0.951-0.744-1.987-0.897c-0.468-0.063-0.813-0.141-1.039-0.249
				C0.118,10.999,0,10.801,0,10.517c0-0.365,0.072-0.594,0.239-0.674c0.156-0.09,0.401-0.132,0.721-0.132
				c0.888,0,2.04,0.037,3.459,0.095c1.419,0.063,2.455,0.09,3.091,0.09c0.853,0,1.867-0.027,3.03-0.09
				c1.155-0.058,2.174-0.095,3.046-0.095c0.644,0,0.967,0.26,0.967,0.758c0,0.283-0.081,0.479-0.246,0.58
				c-0.167,0.095-0.464,0.201-0.894,0.307c-0.893,0.153-1.508,0.345-1.845,0.585c-0.347,0.24-0.562,0.597-0.652,1.066
				c-0.074,0.472-0.108,1.298-0.108,2.479v5.376c0,0.195-0.036,0.354-0.092,0.473c0.056,0.215,0.143,0.325,0.253,0.325
				c0.102,0,0.487-0.269,1.138-0.797c0.27-0.283,0.725-0.737,1.375-1.385c0.636-0.642,1.25-1.258,1.832-1.854
				c0.572-0.582,1.661-1.716,3.274-3.4c1.038-1.099,1.558-1.833,1.558-2.203c0-0.444-0.401-0.665-1.224-0.665
				c-0.647-0.063-1.101-0.151-1.389-0.249c-0.279-0.101-0.422-0.343-0.422-0.723c0-0.3,0.085-0.489,0.262-0.561
				c0.186-0.071,0.477-0.113,0.879-0.113h10.161h0.291c0.613,0,0.927,0.201,0.927,0.598c0,0.698-0.778,1.048-2.317,1.048
				c-1.769,0-3.304,0.571-4.592,1.726l-4.392,4.054c-1.043,1.043-1.564,1.742-1.564,2.073c0,0.259,0.202,0.59,0.602,0.961
				l9.781,11.45c1.005,1.221,1.694,1.97,2.059,2.231c0.297,0.25,0.728,0.405,1.277,0.478c0.556,0.063,0.912,0.125,1.066,0.185
				c0.153,0.057,0.229,0.271,0.229,0.655c0,0.668-0.58,0.998-1.724,0.998c-0.659,0-1.673-0.021-3.051-0.082
				c-1.378-0.051-2.4-0.073-3.07-0.073c-0.633,0-1.598,0.022-2.868,0.073c-1.276,0.062-2.216,0.082-2.815,0.082
				c-0.763,0-1.141-0.33-1.141-0.998c0-0.312,0.097-0.515,0.285-0.623c0.197-0.107,0.464-0.196,0.826-0.239
				c0.359-0.05,0.619-0.108,0.79-0.17c0.16-0.072,0.257-0.218,0.257-0.451c0-0.168-0.058-0.34-0.142-0.498
				c-0.092-0.163-0.234-0.347-0.429-0.543c-0.178-0.208-0.354-0.397-0.539-0.601l-5.967-7.427c-0.559-0.675-0.957-1.067-1.186-1.138
				c-0.113,0-0.21,0.247-0.291,0.765C10.772,24.35,10.809,24.508,10.809,24.696"/>
			<path d="M29.851,22.003c-0.453-0.92-0.848-1.641-1.192-2.17c-0.343-0.524-0.623-0.88-0.857-1.068
				c-0.23-0.184-0.469-0.286-0.723-0.323c-0.246-0.033-0.48-0.052-0.681-0.072c-0.811-0.171-1.22-0.486-1.22-0.962
				c0-0.453,0.469-0.688,1.388-0.688h10.63c0.991,0,1.482,0.235,1.482,0.688c0,0.388-0.233,0.651-0.686,0.771
				c-0.459,0.129-0.916,0.254-1.375,0.382c-0.464,0.127-0.687,0.392-0.687,0.778c0,0.263,0.222,0.858,0.674,1.809l3.123,6.633
				c0.052,0.064,0.148,0.224,0.286,0.466c0.144,0.254,0.251,0.436,0.355,0.564c0.097,0.125,0.197,0.203,0.286,0.203
				c0.196,0,0.36-0.165,0.509-0.47c0.137-0.312,0.263-0.585,0.378-0.854l2.817-6.364c0.315-0.68,0.476-1.231,0.476-1.645
				c0-0.473-0.161-0.784-0.462-0.95c-0.323-0.165-0.775-0.276-1.376-0.341c-0.601-0.064-1.036-0.145-1.311-0.261
				c-0.269-0.101-0.406-0.347-0.406-0.722c0-0.453,0.484-0.688,1.447-0.688h7.202c0.442,0,0.735,0.045,0.884,0.117
				c0.148,0.083,0.221,0.268,0.221,0.57c0,0.564-0.381,0.887-1.143,0.962c-0.672,0.063-1.165,0.165-1.474,0.312
				c-0.301,0.141-0.632,0.512-1,1.099c-0.377,0.598-0.928,1.65-1.653,3.19L39.566,36.02c-0.045,0.126-0.452,1.093-1.214,2.907
				c-0.755,1.812-1.167,2.836-1.235,3.062c-0.373,1.111-0.634,1.818-0.772,2.142c-0.152,0.318-0.409,0.552-0.785,0.714
				c-0.377,0.172-1.015,0.241-1.902,0.241c-1.253,0-2.182-0.147-2.793-0.45c-0.612-0.287-0.916-0.917-0.916-1.862
				c0-1.774,0.743-2.724,2.232-2.849c0.728,0.105,1.375,0.163,1.938,0.163c0.722,0,1.384-0.287,1.986-0.871
				c0.618-0.575,0.927-1.231,0.927-1.956c0-0.602-0.278-1.369-0.842-2.28L29.851,22.003z"/>
			<path d="M53.462,24.073v-0.759c0-0.7-0.125-1.239-0.361-1.618c-0.246-0.38-0.756-0.592-1.538-0.62
				c-0.06,0-0.149,0.022-0.258,0.078c-0.351-0.067-0.609-0.148-0.762-0.237c-0.166-0.086-0.247-0.271-0.247-0.566
				c0-0.257,0.142-0.45,0.436-0.571c0.286-0.13,0.743-0.263,1.373-0.437c0.896-0.167,1.873-0.526,2.949-1.062
				c1.075-0.542,1.902-1.138,2.495-1.792c0.471-0.48,0.968-0.72,1.479-0.72c0.255,0,0.43,0.108,0.524,0.335
				c0.098,0.217,0.145,0.629,0.145,1.215v12.993c0,0.79-0.022,1.372-0.086,1.73c0.023,0.631,0.069,1.092,0.132,1.361
				c0.063,0.277,0.182,0.478,0.342,0.597c0.166,0.123,0.424,0.212,0.775,0.259c0.354,0.058,0.797,0.116,1.328,0.182
				c0.309,0.04,0.549,0.139,0.722,0.32c0.168,0.179,0.251,0.334,0.251,0.482c0,0.554-0.439,0.84-1.312,0.84H51.305
				c-0.894,0-1.353-0.286-1.353-0.84c0-0.333,0.132-0.556,0.39-0.67c0.257-0.107,0.636-0.194,1.133-0.226
				c0.5-0.031,0.876-0.093,1.134-0.164c0.264-0.075,0.435-0.239,0.511-0.495c0.221-0.503,0.342-1.62,0.342-3.385V24.073z"/>
			<path d="M52.775,11.021c0-0.961,0.396-1.737,1.152-2.322c0.767-0.579,1.626-0.873,2.569-0.873c0.998,0,1.869,0.281,2.6,0.841
				c0.739,0.566,1.104,1.359,1.104,2.353c0,1.102-0.372,1.94-1.114,2.553c-0.756,0.603-1.636,0.91-2.681,0.91
				c-1.001,0-1.861-0.307-2.558-0.922C53.137,12.934,52.775,12.086,52.775,11.021"/>
			<path d="M64.541,21.403c-0.464-0.975-0.797-1.632-0.99-1.97c-0.203-0.337-0.447-0.597-0.734-0.763
				c-0.29-0.176-0.731-0.3-1.314-0.388c-0.384-0.049-0.632-0.124-0.767-0.203c-0.131-0.101-0.197-0.278-0.197-0.55
				c0-0.534,0.461-0.809,1.389-0.809h10.545c0.871,0,1.306,0.259,1.306,0.767c0,0.336-0.109,0.556-0.343,0.661
				c-0.229,0.098-0.591,0.171-1.077,0.222c-0.488,0.045-0.847,0.127-1.099,0.246c-0.237,0.111-0.356,0.353-0.356,0.724
				c0,0.129,0.069,0.37,0.188,0.703c0.123,0.336,0.213,0.609,0.275,0.821l3.003,6.748c0.315,0.82,0.547,1.229,0.721,1.229
				c0.217,0,0.439-0.357,0.668-1.059L78,22.802c0.643-1.432,0.967-2.417,0.967-2.961c-0.078-0.823-0.721-1.318-1.904-1.472
				c-0.517-0.062-0.877-0.137-1.088-0.222c-0.201-0.078-0.296-0.293-0.296-0.619c0-0.534,0.348-0.809,1.058-0.809h7.425
				c0.808,0,1.214,0.259,1.214,0.767c0,0.428-0.326,0.733-0.973,0.883c-0.968,0.135-1.584,0.283-1.871,0.445
				c-0.282,0.153-0.615,0.643-0.997,1.442l-6.911,14.432c-0.396,0.751-0.686,1.229-0.894,1.43c-0.2,0.2-0.567,0.304-1.098,0.304
				c-0.288,0-0.53-0.031-0.716-0.091c-0.189-0.062-0.333-0.136-0.446-0.257c-0.105-0.117-0.224-0.342-0.361-0.662
				c-0.131-0.316-0.229-0.528-0.288-0.641L64.541,21.403z"/>
			<path d="M93.739,25.201v5.275c0,1.024,0.046,1.76,0.123,2.223c0.08,0.458,0.302,0.825,0.646,1.108
				c0.367,0.283,0.952,0.499,1.775,0.635c0.864,0.104,1.306,0.395,1.306,0.882c0,0.563-0.32,0.843-0.97,0.843
				c-0.604,0-1.652-0.021-3.151-0.082c-1.495-0.051-2.623-0.073-3.352-0.073c-0.501,0-1.488,0.022-2.948,0.073
				c-1.466,0.062-2.501,0.082-3.093,0.082c-0.32,0-0.566-0.043-0.759-0.146c-0.196-0.099-0.3-0.33-0.3-0.696
				c0-0.28,0.122-0.502,0.351-0.655c0.234-0.155,0.498-0.227,0.802-0.227c0.813-0.11,1.412-0.283,1.781-0.503
				c0.364-0.23,0.611-0.538,0.715-0.928c0.109-0.401,0.161-0.956,0.161-1.69v-0.857V15.486v-0.84c0-0.815-0.048-1.438-0.143-1.843
				c-0.093-0.405-0.322-0.717-0.655-0.95c-0.337-0.223-0.88-0.391-1.612-0.497c-0.522-0.07-0.889-0.141-1.09-0.224
				c-0.2-0.066-0.309-0.252-0.309-0.538c0-0.588,0.328-0.883,0.975-0.883c0.847,0,1.803,0.037,2.88,0.095
				c1.075,0.063,1.929,0.09,2.575,0.09c1.384,0,2.955-0.027,4.684-0.09c1.734-0.058,3.2-0.095,4.385-0.095
				c1.512,0,2.748,0.095,3.688,0.28c0.95,0.197,1.855,0.568,2.725,1.117c2.191,1.381,3.292,3.367,3.292,5.954
				c-0.036,1.348-0.373,2.644-1.013,3.882c-0.635,1.238-1.588,2.258-2.834,3.06c-1.254,0.801-2.771,1.197-4.553,1.197
				c-0.721,0-1.362-0.063-1.892-0.176c-0.535-0.117-1.216-0.289-2.06-0.517c-0.831-0.235-1.385-0.349-1.659-0.349
				c-0.286,0-0.471,0.181-0.544,0.543C93.724,24.812,93.739,24.981,93.739,25.201 M93.739,20.784c0,0.876,0.099,1.371,0.264,1.482
				c0.515,0.369,1.271,0.55,2.279,0.55c1.141,0,2.068-0.283,2.782-0.852c0.715-0.562,1.23-1.274,1.552-2.158
				c0.315-0.878,0.469-1.796,0.469-2.742c0-1.566-0.457-2.903-1.365-4.032c-0.924-1.12-2.12-1.676-3.608-1.676
				c-0.924,0-1.548,0.241-1.873,0.743c-0.332,0.49-0.5,1.23-0.5,2.215v1.901V20.784z"/>
			<path d="M107.287,26.306c0-1.954,0.567-3.703,1.706-5.23c1.146-1.548,2.621-2.744,4.454-3.58
				c1.846-0.849,3.768-1.272,5.782-1.272c1.707,0,3.271,0.259,4.72,0.78c1.418,0.51,2.663,1.215,3.708,2.119
				c1.043,0.896,1.837,1.953,2.405,3.129c0.573,1.187,0.857,2.428,0.857,3.716c0,2.037-0.563,3.857-1.704,5.433
				c-1.128,1.581-2.623,2.797-4.455,3.65c-1.838,0.867-3.756,1.28-5.784,1.28c-1.961,0-3.846-0.374-5.638-1.13
				c-1.799-0.76-3.258-1.894-4.376-3.425C107.847,30.257,107.287,28.433,107.287,26.306 M114.129,25.201
				c0,1.542,0.229,3.069,0.658,4.577c0.447,1.509,1.094,2.743,1.932,3.71c0.833,0.979,1.808,1.46,2.941,1.46
				c1.374,0,2.49-0.707,3.336-2.111c0.849-1.414,1.272-3.349,1.272-5.814c0-1.672-0.246-3.23-0.725-4.681
				c-0.493-1.449-1.159-2.601-1.994-3.448c-0.833-0.854-1.747-1.288-2.731-1.288c-0.883,0-1.689,0.317-2.399,0.94
				c-0.71,0.631-1.272,1.522-1.678,2.689C114.334,22.397,114.129,23.719,114.129,25.201"/>
			<path d="M132.008,31.148c0.069-0.575,0.145-0.966,0.231-1.164c0.079-0.206,0.342-0.306,0.777-0.306
				c0.38,0,0.715,0.264,1.008,0.776c0.309,0.529,0.671,1.17,1.106,1.918c0.427,0.763,1.014,1.375,1.745,1.86
				c0.739,0.479,1.729,0.715,2.99,0.715c0.554,0,1.155-0.102,1.796-0.294c0.641-0.187,1.192-0.496,1.646-0.91
				c0.453-0.417,0.687-0.932,0.687-1.545c0-0.77-0.293-1.386-0.886-1.854c-0.587-0.467-1.461-0.885-2.618-1.264
				c-1.66-0.537-2.817-0.922-3.487-1.16c-0.666-0.242-1.409-0.604-2.222-1.08c-0.82-0.479-1.483-1.071-1.997-1.781
				c-0.515-0.701-0.774-1.525-0.774-2.471c0-1.152,0.38-2.211,1.146-3.193c0.771-0.97,1.801-1.751,3.109-2.321
				c1.3-0.565,2.696-0.852,4.226-0.852c1.704,0,3.646,0.255,5.856,0.762c0.585,0.172,0.927,0.334,1.054,0.48
				c0.118,0.14,0.177,0.537,0.177,1.155v1.06c-0.063,0.379-0.142,0.794-0.229,1.236c-0.098,0.446-0.309,0.666-0.659,0.666
				c-0.395,0-0.887-0.329-1.478-0.976c-0.71-0.968-1.19-1.589-1.437-1.86c-0.242-0.28-0.595-0.527-1.071-0.737
				c-0.474-0.208-1.099-0.314-1.883-0.314c-0.985,0-1.815,0.195-2.472,0.563c-0.661,0.376-0.997,0.936-0.997,1.67
				c0,0.804,0.336,1.339,0.997,1.632c0.657,0.287,2.06,0.78,4.207,1.476c2.141,0.683,3.719,1.467,4.745,2.324
				c1.033,0.864,1.542,2.097,1.542,3.721c0,1.264-0.367,2.454-1.105,3.573c-0.734,1.131-1.837,2.031-3.32,2.723
				c-1.485,0.697-3.281,1.045-5.404,1.045c-2.384,0-4.347-0.425-5.916-1.265c-0.475-0.246-0.789-0.504-0.944-0.777
				c-0.15-0.271-0.229-0.742-0.229-1.418L132.008,31.148z"/>
			<path d="M158.118,20.425v7.02c0,1.186,0.04,2.195,0.13,2.992c0.097,0.806,0.286,1.461,0.585,1.963
				c0.29,0.5,0.732,0.748,1.323,0.748c0.407,0,0.779-0.088,1.109-0.245c0.329-0.161,0.684-0.373,1.079-0.632
				c0.387-0.258,0.663-0.383,0.805-0.383c0.137,0,0.264,0.053,0.355,0.167c0.104,0.107,0.161,0.244,0.161,0.42
				c0,0.377-0.314,0.896-0.94,1.526c-0.612,0.643-1.436,1.206-2.456,1.697c-1,0.481-2.091,0.724-3.235,0.724
				c-1.59,0-2.85-0.537-3.782-1.616c-0.944-1.07-1.41-2.692-1.41-4.844v-8.904c0-1.039-0.065-1.676-0.177-1.917
				c-0.119-0.244-0.435-0.362-0.963-0.362c-0.336,0-0.658,0.028-0.945,0.082c-0.583-0.106-0.871-0.3-0.871-0.59
				c0-0.213,0.099-0.412,0.309-0.566c0.203-0.158,0.54-0.342,0.996-0.561c2.676-1.064,4.547-2.582,5.616-4.543
				c0.502-0.93,0.987-1.396,1.473-1.396c0.454,0,0.683,0.313,0.683,0.927v0.628v2.913c0,0.532,0.033,0.862,0.122,0.977
				c0.073,0.121,0.329,0.194,0.759,0.249c0.178-0.063,0.345-0.093,0.509-0.093h2.321h0.475c0.354,0,0.601,0.042,0.727,0.148
				c0.139,0.088,0.206,0.304,0.206,0.643c0,0.561-0.082,0.896-0.257,1.004c-0.162,0.118-0.577,0.177-1.236,0.177h-2.061
				c-0.522,0-0.86,0.021-1.033,0.066c-0.164,0.052-0.272,0.172-0.315,0.363C158.135,19.413,158.118,19.815,158.118,20.425"/>
		</g>
	</g>
	<g>
		<g>
			<path d="M204.244,2.067h7.521v24.013h13.641v6.373h-21.162V2.067z"/>
			<path d="M231.653,2.067h23.033v6.205h-15.512v5.439h13.301v5.865h-13.301v6.504h15.766v6.373h-23.287V2.067z"/>
			<path d="M263.99,28.884c-2.636-2.891-4.08-6.886-4.08-11.518c0-4.759,1.616-8.967,4.506-11.858
				c2.507-2.549,6.034-4.036,10.41-4.036c7.82,0,12.495,4.165,13.474,10.54h-7.311c-0.554-2.466-2.592-4.335-5.907-4.335
				c-5.015,0-7.521,4.165-7.521,9.688c0,5.567,2.89,9.691,7.649,9.691c3.953,0,6.29-2.636,6.586-5.314v-0.084h-5.695v-5.525h12.665
				v16.32h-5.27l-0.425-3.654h-0.085c-1.997,3.102-4.973,4.334-8.627,4.334C270.025,33.133,266.497,31.603,263.99,28.884z"/>
			<path d="M304.616,2.067h7.733l10.965,30.386h-7.905l-1.784-5.482h-10.624l-1.743,5.482h-7.563L304.616,2.067z M311.883,21.575
				l-2.295-7.353c-0.511-1.572-1.19-4.293-1.19-4.293h-0.083c0,0-0.725,2.721-1.235,4.293l-2.337,7.353H311.883z"/>
			<path d="M328.837,2.067h7.522v24.013H350v6.373h-21.163V2.067z"/>
		</g>
		<g>
			<path d="M211.559,49.238c-0.723,0.518-1.607,0.797-2.61,0.797c-2.861,0-4.72-2.346-4.72-5.474c0-3.126,1.858-5.472,4.72-5.472
				c2.862,0,4.751,2.346,4.751,5.472c0,1.742-0.591,3.231-1.594,4.22l1.356,1.107l-0.441,0.56L211.559,49.238z M210.982,48.781
				l-1.193-1.004l0.441-0.544l1.328,1.092c0.886-0.872,1.343-2.229,1.343-3.764c0-2.61-1.387-4.778-3.953-4.778
				s-3.924,2.168-3.924,4.778c0,2.611,1.357,4.781,3.924,4.781C209.744,49.342,210.423,49.137,210.982,48.781z"/>
			<path d="M223.541,46.523v-7.228h0.767v7.17c0,2.066,1.077,2.861,2.996,2.861c1.814,0,2.995-0.795,2.995-2.861v-7.17h0.767v7.228
				c0,2.392-1.521,3.482-3.806,3.482C224.958,50.005,223.541,48.855,223.541,46.523z"/>
			<path d="M244.197,39.295h0.871l4.086,10.548h-0.796l-1.298-3.378h-4.854l-1.297,3.378h-0.782L244.197,39.295z M242.458,45.815
				h4.351l-1.592-4.188c-0.236-0.605-0.577-1.564-0.577-1.564h-0.028c0,0-0.295,0.9-0.547,1.564L242.458,45.815z"/>
			<path d="M258.673,39.295h4.559c1.932,0,2.92,1.033,2.92,2.818c0,1.313-0.561,2.123-1.726,2.492v0.045
				c1.092,0.353,1.445,1.18,1.504,2.877c0.062,1.695,0.252,2.123,0.443,2.258v0.058h-0.824c-0.237-0.134-0.312-0.532-0.386-2.36
				c-0.073-2.006-0.707-2.522-2.33-2.522h-3.394v4.883h-0.767V39.295z M259.439,44.282h3.541c1.563,0,2.39-0.767,2.39-2.139
				c0-1.345-0.604-2.169-2.228-2.169h-3.703V44.282z"/>
			<path d="M275.375,39.295h7.967v0.693h-3.599v9.854h-0.767v-9.854h-3.602V39.295z"/>
			<path d="M293.022,39.295h6.992v0.679h-6.226v4.101h5.724v0.664h-5.724v4.398h6.373v0.706h-7.14V39.295z"/>
			<path d="M310.123,39.295h4.559c1.932,0,2.923,1.033,2.923,2.818c0,1.313-0.562,2.123-1.728,2.492v0.045
				c1.092,0.353,1.445,1.18,1.503,2.877c0.061,1.695,0.253,2.123,0.444,2.258v0.058h-0.827c-0.235-0.134-0.31-0.532-0.384-2.36
				c-0.073-2.006-0.706-2.522-2.331-2.522h-3.392v4.883h-0.768V39.295z M310.891,44.282h3.539c1.565,0,2.391-0.767,2.391-2.139
				c0-1.345-0.605-2.169-2.228-2.169h-3.702V44.282z"/>
			<path d="M327.711,39.295h0.768v9.842h5.679v0.706h-6.446V39.295z"/>
			<path d="M345.373,45.151l-3.806-5.855h0.84l3.351,5.163h0.029l3.348-5.163h0.824l-3.819,5.887v4.661h-0.767V45.151z"/>
		</g>
	</g>
	<g>
		<rect x="183.355" y="-1.069" width="1.183" height="55.051"/>
	</g>
</g>
</svg>
